<?xml version="1.0" encoding="utf-8" standalone="no"?>
<!DOCTYPE svg PUBLIC "-//W3C//DTD SVG 1.1//EN"
  "http://www.w3.org/Graphics/SVG/1.1/DTD/svg11.dtd">
<svg xmlns:xlink="http://www.w3.org/1999/xlink" width="700.307187pt" height="411.587812pt" viewBox="0 0 700.307187 411.587812" xmlns="http://www.w3.org/2000/svg" version="1.1">
 <title>Hybrid Cascade (LBPH, r3_n8_g6x6 candidate-only): Inter-Identity Distance Distribution</title>
 <metadata>
  <rdf:RDF xmlns:dc="http://purl.org/dc/elements/1.1/" xmlns:cc="http://creativecommons.org/ns#" xmlns:rdf="http://www.w3.org/1999/02/22-rdf-syntax-ns#">
   <cc:Work>
    <dc:type rdf:resource="http://purl.org/dc/dcmitype/StillImage"/>
    <dc:title>Hybrid Cascade (LBPH, r3_n8_g6x6 candidate-only): Inter-Identity Distance Distribution</dc:title>
    <dc:date>2026-08-15T12:10:41.239867</dc:date>
    <dc:description>Recorded hybrid-cascade inter-identity comparisons</dc:description>
    <dc:format>image/svg+xml</dc:format>
    <dc:creator>
     <cc:Agent>
      <dc:title>LS-Face manuscript SVG exporter</dc:title>
     </cc:Agent>
    </dc:creator>
   </cc:Work>
  </rdf:RDF>
 </metadata>
 <defs>
  <style type="text/css">*{stroke-linejoin: round; stroke-linecap: butt}</style>
 </defs>
 <g id="figure_1">
  <g id="patch_1">
   <path d="M 0 411.587812 
L 700.307187 411.587812 
L 700.307187 0 
L 0 0 
z
" style="fill: #ffffff"/>
  </g>
  <g id="axes_1">
   <g id="patch_2">
    <path d="M 32.707188 380.618125 
L 698.867187 380.618125 
L 698.867187 16.175625 
L 32.707188 16.175625 
z
" style="fill: #ffffff"/>
   </g>
   <g id="patch_3">
    <path d="M 100.983211 380.618125 
L 107.654572 380.618125 
L 107.654572 364.841393 
L 100.983211 364.841393 
z
" clip-path="url(#p7efa2cb46f)" style="fill: #4c72b0; opacity: 0.75; stroke: #000000; stroke-linejoin: miter"/>
   </g>
   <g id="patch_4">
    <path d="M 107.654572 380.618125 
L 114.325932 380.618125 
L 114.325932 317.511199 
L 107.654572 317.511199 
z
" clip-path="url(#p7efa2cb46f)" style="fill: #4c72b0; opacity: 0.75; stroke: #000000; stroke-linejoin: miter"/>
   </g>
   <g id="patch_5">
    <path d="M 114.325932 380.618125 
L 120.997292 380.618125 
L 120.997292 349.064662 
L 114.325932 349.064662 
z
" clip-path="url(#p7efa2cb46f)" style="fill: #4c72b0; opacity: 0.75; stroke: #000000; stroke-linejoin: miter"/>
   </g>
   <g id="patch_6">
    <path d="M 120.997292 380.618125 
L 127.668653 380.618125 
L 127.668653 333.28793 
L 120.997292 333.28793 
z
" clip-path="url(#p7efa2cb46f)" style="fill: #4c72b0; opacity: 0.75; stroke: #000000; stroke-linejoin: miter"/>
   </g>
   <g id="patch_7">
    <path d="M 127.668653 380.618125 
L 134.340013 380.618125 
L 134.340013 349.064662 
L 127.668653 349.064662 
z
" clip-path="url(#p7efa2cb46f)" style="fill: #4c72b0; opacity: 0.75; stroke: #000000; stroke-linejoin: miter"/>
   </g>
   <g id="patch_8">
    <path d="M 134.340013 380.618125 
L 141.011373 380.618125 
L 141.011373 364.841393 
L 134.340013 364.841393 
z
" clip-path="url(#p7efa2cb46f)" style="fill: #4c72b0; opacity: 0.75; stroke: #000000; stroke-linejoin: miter"/>
   </g>
   <g id="patch_9">
    <path d="M 141.011373 380.618125 
L 147.682734 380.618125 
L 147.682734 301.734467 
L 141.011373 301.734467 
z
" clip-path="url(#p7efa2cb46f)" style="fill: #4c72b0; opacity: 0.75; stroke: #000000; stroke-linejoin: miter"/>
   </g>
   <g id="patch_10">
    <path d="M 147.682734 380.618125 
L 154.354094 380.618125 
L 154.354094 301.734467 
L 147.682734 301.734467 
z
" clip-path="url(#p7efa2cb46f)" style="fill: #4c72b0; opacity: 0.75; stroke: #000000; stroke-linejoin: miter"/>
   </g>
   <g id="patch_11">
    <path d="M 154.354094 380.618125 
L 161.025454 380.618125 
L 161.025454 364.841393 
L 154.354094 364.841393 
z
" clip-path="url(#p7efa2cb46f)" style="fill: #4c72b0; opacity: 0.75; stroke: #000000; stroke-linejoin: miter"/>
   </g>
   <g id="patch_12">
    <path d="M 161.025454 380.618125 
L 167.696815 380.618125 
L 167.696815 207.074077 
L 161.025454 207.074077 
z
" clip-path="url(#p7efa2cb46f)" style="fill: #4c72b0; opacity: 0.75; stroke: #000000; stroke-linejoin: miter"/>
   </g>
   <g id="patch_13">
    <path d="M 167.696815 380.618125 
L 174.368175 380.618125 
L 174.368175 301.734467 
L 167.696815 301.734467 
z
" clip-path="url(#p7efa2cb46f)" style="fill: #4c72b0; opacity: 0.75; stroke: #000000; stroke-linejoin: miter"/>
   </g>
   <g id="patch_14">
    <path d="M 174.368175 380.618125 
L 181.039535 380.618125 
L 181.039535 207.074077 
L 174.368175 207.074077 
z
" clip-path="url(#p7efa2cb46f)" style="fill: #4c72b0; opacity: 0.75; stroke: #000000; stroke-linejoin: miter"/>
   </g>
   <g id="patch_15">
    <path d="M 181.039535 380.618125 
L 187.710895 380.618125 
L 187.710895 191.297346 
L 181.039535 191.297346 
z
" clip-path="url(#p7efa2cb46f)" style="fill: #4c72b0; opacity: 0.75; stroke: #000000; stroke-linejoin: miter"/>
   </g>
   <g id="patch_16">
    <path d="M 187.710895 380.618125 
L 194.382256 380.618125 
L 194.382256 254.404272 
L 187.710895 254.404272 
z
" clip-path="url(#p7efa2cb46f)" style="fill: #4c72b0; opacity: 0.75; stroke: #000000; stroke-linejoin: miter"/>
   </g>
   <g id="patch_17">
    <path d="M 194.382256 380.618125 
L 201.053616 380.618125 
L 201.053616 159.743883 
L 194.382256 159.743883 
z
" clip-path="url(#p7efa2cb46f)" style="fill: #4c72b0; opacity: 0.75; stroke: #000000; stroke-linejoin: miter"/>
   </g>
   <g id="patch_18">
    <path d="M 201.053616 380.618125 
L 207.724976 380.618125 
L 207.724976 49.306761 
L 201.053616 49.306761 
z
" clip-path="url(#p7efa2cb46f)" style="fill: #4c72b0; opacity: 0.75; stroke: #000000; stroke-linejoin: miter"/>
   </g>
   <g id="patch_19">
    <path d="M 207.724976 380.618125 
L 214.396337 380.618125 
L 214.396337 175.520614 
L 207.724976 175.520614 
z
" clip-path="url(#p7efa2cb46f)" style="fill: #4c72b0; opacity: 0.75; stroke: #000000; stroke-linejoin: miter"/>
   </g>
   <g id="patch_20">
    <path d="M 214.396337 380.618125 
L 221.067697 380.618125 
L 221.067697 112.413688 
L 214.396337 112.413688 
z
" clip-path="url(#p7efa2cb46f)" style="fill: #4c72b0; opacity: 0.75; stroke: #000000; stroke-linejoin: miter"/>
   </g>
   <g id="patch_21">
    <path d="M 221.067697 380.618125 
L 227.739057 380.618125 
L 227.739057 65.083493 
L 221.067697 65.083493 
z
" clip-path="url(#p7efa2cb46f)" style="fill: #4c72b0; opacity: 0.75; stroke: #000000; stroke-linejoin: miter"/>
   </g>
   <g id="patch_22">
    <path d="M 227.739057 380.618125 
L 234.410418 380.618125 
L 234.410418 112.413688 
L 227.739057 112.413688 
z
" clip-path="url(#p7efa2cb46f)" style="fill: #4c72b0; opacity: 0.75; stroke: #000000; stroke-linejoin: miter"/>
   </g>
   <g id="patch_23">
    <path d="M 234.410418 380.618125 
L 241.081778 380.618125 
L 241.081778 96.636956 
L 234.410418 96.636956 
z
" clip-path="url(#p7efa2cb46f)" style="fill: #4c72b0; opacity: 0.75; stroke: #000000; stroke-linejoin: miter"/>
   </g>
   <g id="patch_24">
    <path d="M 241.081778 380.618125 
L 247.753138 380.618125 
L 247.753138 33.53003 
L 241.081778 33.53003 
z
" clip-path="url(#p7efa2cb46f)" style="fill: #4c72b0; opacity: 0.75; stroke: #000000; stroke-linejoin: miter"/>
   </g>
   <g id="patch_25">
    <path d="M 247.753138 380.618125 
L 254.424499 380.618125 
L 254.424499 96.636956 
L 247.753138 96.636956 
z
" clip-path="url(#p7efa2cb46f)" style="fill: #4c72b0; opacity: 0.75; stroke: #000000; stroke-linejoin: miter"/>
   </g>
   <g id="patch_26">
    <path d="M 254.424499 380.618125 
L 261.095859 380.618125 
L 261.095859 112.413688 
L 254.424499 112.413688 
z
" clip-path="url(#p7efa2cb46f)" style="fill: #4c72b0; opacity: 0.75; stroke: #000000; stroke-linejoin: miter"/>
   </g>
   <g id="patch_27">
    <path d="M 261.095859 380.618125 
L 267.767219 380.618125 
L 267.767219 128.190419 
L 261.095859 128.190419 
z
" clip-path="url(#p7efa2cb46f)" style="fill: #4c72b0; opacity: 0.75; stroke: #000000; stroke-linejoin: miter"/>
   </g>
   <g id="patch_28">
    <path d="M 267.767219 380.618125 
L 274.438579 380.618125 
L 274.438579 143.967151 
L 267.767219 143.967151 
z
" clip-path="url(#p7efa2cb46f)" style="fill: #4c72b0; opacity: 0.75; stroke: #000000; stroke-linejoin: miter"/>
   </g>
   <g id="patch_29">
    <path d="M 274.438579 380.618125 
L 281.10994 380.618125 
L 281.10994 191.297346 
L 274.438579 191.297346 
z
" clip-path="url(#p7efa2cb46f)" style="fill: #4c72b0; opacity: 0.75; stroke: #000000; stroke-linejoin: miter"/>
   </g>
   <g id="patch_30">
    <path d="M 281.10994 380.618125 
L 287.7813 380.618125 
L 287.7813 80.860225 
L 281.10994 80.860225 
z
" clip-path="url(#p7efa2cb46f)" style="fill: #4c72b0; opacity: 0.75; stroke: #000000; stroke-linejoin: miter"/>
   </g>
   <g id="patch_31">
    <path d="M 287.7813 380.618125 
L 294.45266 380.618125 
L 294.45266 143.967151 
L 287.7813 143.967151 
z
" clip-path="url(#p7efa2cb46f)" style="fill: #4c72b0; opacity: 0.75; stroke: #000000; stroke-linejoin: miter"/>
   </g>
   <g id="patch_32">
    <path d="M 294.45266 380.618125 
L 301.124021 380.618125 
L 301.124021 270.181004 
L 294.45266 270.181004 
z
" clip-path="url(#p7efa2cb46f)" style="fill: #4c72b0; opacity: 0.75; stroke: #000000; stroke-linejoin: miter"/>
   </g>
   <g id="patch_33">
    <path d="M 301.124021 380.618125 
L 307.795381 380.618125 
L 307.795381 222.850809 
L 301.124021 222.850809 
z
" clip-path="url(#p7efa2cb46f)" style="fill: #4c72b0; opacity: 0.75; stroke: #000000; stroke-linejoin: miter"/>
   </g>
   <g id="patch_34">
    <path d="M 307.795381 380.618125 
L 314.466741 380.618125 
L 314.466741 175.520614 
L 307.795381 175.520614 
z
" clip-path="url(#p7efa2cb46f)" style="fill: #4c72b0; opacity: 0.75; stroke: #000000; stroke-linejoin: miter"/>
   </g>
   <g id="patch_35">
    <path d="M 314.466741 380.618125 
L 321.138102 380.618125 
L 321.138102 301.734467 
L 314.466741 301.734467 
z
" clip-path="url(#p7efa2cb46f)" style="fill: #4c72b0; opacity: 0.75; stroke: #000000; stroke-linejoin: miter"/>
   </g>
   <g id="patch_36">
    <path d="M 321.138102 380.618125 
L 327.809462 380.618125 
L 327.809462 254.404272 
L 321.138102 254.404272 
z
" clip-path="url(#p7efa2cb46f)" style="fill: #4c72b0; opacity: 0.75; stroke: #000000; stroke-linejoin: miter"/>
   </g>
   <g id="patch_37">
    <path d="M 327.809462 380.618125 
L 334.480822 380.618125 
L 334.480822 364.841393 
L 327.809462 364.841393 
z
" clip-path="url(#p7efa2cb46f)" style="fill: #4c72b0; opacity: 0.75; stroke: #000000; stroke-linejoin: miter"/>
   </g>
   <g id="patch_38">
    <path d="M 334.480822 380.618125 
L 341.152183 380.618125 
L 341.152183 349.064662 
L 334.480822 349.064662 
z
" clip-path="url(#p7efa2cb46f)" style="fill: #4c72b0; opacity: 0.75; stroke: #000000; stroke-linejoin: miter"/>
   </g>
   <g id="patch_39">
    <path d="M 341.152183 380.618125 
L 347.823543 380.618125 
L 347.823543 333.28793 
L 341.152183 333.28793 
z
" clip-path="url(#p7efa2cb46f)" style="fill: #4c72b0; opacity: 0.75; stroke: #000000; stroke-linejoin: miter"/>
   </g>
   <g id="patch_40">
    <path d="M 347.823543 380.618125 
L 354.494903 380.618125 
L 354.494903 364.841393 
L 347.823543 364.841393 
z
" clip-path="url(#p7efa2cb46f)" style="fill: #4c72b0; opacity: 0.75; stroke: #000000; stroke-linejoin: miter"/>
   </g>
   <g id="patch_41">
    <path d="M 354.494903 380.618125 
L 361.166263 380.618125 
L 361.166263 364.841393 
L 354.494903 364.841393 
z
" clip-path="url(#p7efa2cb46f)" style="fill: #4c72b0; opacity: 0.75; stroke: #000000; stroke-linejoin: miter"/>
   </g>
   <g id="patch_42">
    <path d="M 361.166263 380.618125 
L 367.837624 380.618125 
L 367.837624 349.064662 
L 361.166263 349.064662 
z
" clip-path="url(#p7efa2cb46f)" style="fill: #4c72b0; opacity: 0.75; stroke: #000000; stroke-linejoin: miter"/>
   </g>
   <g id="matplotlib.axis_1">
    <g id="xtick_1">
     <g id="line2d_1">
      <path d="M 98.55889 380.618125 
L 98.55889 16.175625 
" clip-path="url(#p7efa2cb46f)" style="fill: none; stroke: #b0b0b0; stroke-opacity: 0.3; stroke-width: 0.8; stroke-linecap: square"/>
     </g>
     <g id="line2d_2">
      <defs>
       <path id="m249040b428" d="M 0 0 
L 0 3.5 
" style="stroke: #000000; stroke-width: 0.8"/>
      </defs>
      <g>
       <use xlink:href="#m249040b428" x="98.55889" y="380.618125" style="stroke: #000000; stroke-width: 0.8"/>
      </g>
     </g>
     <g id="text_1">
      <text style="font-size: 10px; font-family: 'Arial', 'DejaVu Sans'; text-anchor: middle" x="98.55889" y="394.775937" transform="rotate(-0 98.55889 394.775937)">50</text>
     </g>
    </g>
    <g id="xtick_2">
     <g id="line2d_3">
      <path d="M 180.929157 380.618125 
L 180.929157 16.175625 
" clip-path="url(#p7efa2cb46f)" style="fill: none; stroke: #b0b0b0; stroke-opacity: 0.3; stroke-width: 0.8; stroke-linecap: square"/>
     </g>
     <g id="line2d_4">
      <g>
       <use xlink:href="#m249040b428" x="180.929157" y="380.618125" style="stroke: #000000; stroke-width: 0.8"/>
      </g>
     </g>
     <g id="text_2">
      <text style="font-size: 10px; font-family: 'Arial', 'DejaVu Sans'; text-anchor: middle" x="180.929157" y="394.775937" transform="rotate(-0 180.929157 394.775937)">55</text>
     </g>
    </g>
    <g id="xtick_3">
     <g id="line2d_5">
      <path d="M 263.299425 380.618125 
L 263.299425 16.175625 
" clip-path="url(#p7efa2cb46f)" style="fill: none; stroke: #b0b0b0; stroke-opacity: 0.3; stroke-width: 0.8; stroke-linecap: square"/>
     </g>
     <g id="line2d_6">
      <g>
       <use xlink:href="#m249040b428" x="263.299425" y="380.618125" style="stroke: #000000; stroke-width: 0.8"/>
      </g>
     </g>
     <g id="text_3">
      <text style="font-size: 10px; font-family: 'Arial', 'DejaVu Sans'; text-anchor: middle" x="263.299425" y="394.775937" transform="rotate(-0 263.299425 394.775937)">60</text>
     </g>
    </g>
    <g id="xtick_4">
     <g id="line2d_7">
      <path d="M 345.669693 380.618125 
L 345.669693 16.175625 
" clip-path="url(#p7efa2cb46f)" style="fill: none; stroke: #b0b0b0; stroke-opacity: 0.3; stroke-width: 0.8; stroke-linecap: square"/>
     </g>
     <g id="line2d_8">
      <g>
       <use xlink:href="#m249040b428" x="345.669693" y="380.618125" style="stroke: #000000; stroke-width: 0.8"/>
      </g>
     </g>
     <g id="text_4">
      <text style="font-size: 10px; font-family: 'Arial', 'DejaVu Sans'; text-anchor: middle" x="345.669693" y="394.775937" transform="rotate(-0 345.669693 394.775937)">65</text>
     </g>
    </g>
    <g id="xtick_5">
     <g id="line2d_9">
      <path d="M 428.03996 380.618125 
L 428.03996 16.175625 
" clip-path="url(#p7efa2cb46f)" style="fill: none; stroke: #b0b0b0; stroke-opacity: 0.3; stroke-width: 0.8; stroke-linecap: square"/>
     </g>
     <g id="line2d_10">
      <g>
       <use xlink:href="#m249040b428" x="428.03996" y="380.618125" style="stroke: #000000; stroke-width: 0.8"/>
      </g>
     </g>
     <g id="text_5">
      <text style="font-size: 10px; font-family: 'Arial', 'DejaVu Sans'; text-anchor: middle" x="428.03996" y="394.775937" transform="rotate(-0 428.03996 394.775937)">70</text>
     </g>
    </g>
    <g id="xtick_6">
     <g id="line2d_11">
      <path d="M 510.410228 380.618125 
L 510.410228 16.175625 
" clip-path="url(#p7efa2cb46f)" style="fill: none; stroke: #b0b0b0; stroke-opacity: 0.3; stroke-width: 0.8; stroke-linecap: square"/>
     </g>
     <g id="line2d_12">
      <g>
       <use xlink:href="#m249040b428" x="510.410228" y="380.618125" style="stroke: #000000; stroke-width: 0.8"/>
      </g>
     </g>
     <g id="text_6">
      <text style="font-size: 10px; font-family: 'Arial', 'DejaVu Sans'; text-anchor: middle" x="510.410228" y="394.775937" transform="rotate(-0 510.410228 394.775937)">75</text>
     </g>
    </g>
    <g id="xtick_7">
     <g id="line2d_13">
      <path d="M 592.780495 380.618125 
L 592.780495 16.175625 
" clip-path="url(#p7efa2cb46f)" style="fill: none; stroke: #b0b0b0; stroke-opacity: 0.3; stroke-width: 0.8; stroke-linecap: square"/>
     </g>
     <g id="line2d_14">
      <g>
       <use xlink:href="#m249040b428" x="592.780495" y="380.618125" style="stroke: #000000; stroke-width: 0.8"/>
      </g>
     </g>
     <g id="text_7">
      <text style="font-size: 10px; font-family: 'Arial', 'DejaVu Sans'; text-anchor: middle" x="592.780495" y="394.775937" transform="rotate(-0 592.780495 394.775937)">80</text>
     </g>
    </g>
    <g id="xtick_8">
     <g id="line2d_15">
      <path d="M 675.150763 380.618125 
L 675.150763 16.175625 
" clip-path="url(#p7efa2cb46f)" style="fill: none; stroke: #b0b0b0; stroke-opacity: 0.3; stroke-width: 0.8; stroke-linecap: square"/>
     </g>
     <g id="line2d_16">
      <g>
       <use xlink:href="#m249040b428" x="675.150763" y="380.618125" style="stroke: #000000; stroke-width: 0.8"/>
      </g>
     </g>
     <g id="text_8">
      <text style="font-size: 10px; font-family: 'Arial', 'DejaVu Sans'; text-anchor: middle" x="675.150763" y="394.775937" transform="rotate(-0 675.150763 394.775937)">85</text>
     </g>
    </g>
    <g id="text_9">
     <text style="font-size: 10px; font-family: 'Arial', 'DejaVu Sans'; text-anchor: middle" x="365.787187" y="408.043125" transform="rotate(-0 365.787187 408.043125)">LBPH native predict_collect distance (lower is better)</text>
    </g>
   </g>
   <g id="matplotlib.axis_2">
    <g id="ytick_1">
     <g id="line2d_17">
      <path d="M 32.707188 380.618125 
L 698.867187 380.618125 
" clip-path="url(#p7efa2cb46f)" style="fill: none; stroke: #b0b0b0; stroke-opacity: 0.3; stroke-width: 0.8; stroke-linecap: square"/>
     </g>
     <g id="line2d_18">
      <defs>
       <path id="m39ba7e2ae4" d="M 0 0 
L -3.5 0 
" style="stroke: #000000; stroke-width: 0.8"/>
      </defs>
      <g>
       <use xlink:href="#m39ba7e2ae4" x="32.707188" y="380.618125" style="stroke: #000000; stroke-width: 0.8"/>
      </g>
     </g>
     <g id="text_10">
      <text style="font-size: 10px; font-family: 'Arial', 'DejaVu Sans'; text-anchor: end" x="25.707188" y="384.197031" transform="rotate(-0 25.707188 384.197031)">0</text>
     </g>
    </g>
    <g id="ytick_2">
     <g id="line2d_19">
      <path d="M 32.707188 301.734467 
L 698.867187 301.734467 
" clip-path="url(#p7efa2cb46f)" style="fill: none; stroke: #b0b0b0; stroke-opacity: 0.3; stroke-width: 0.8; stroke-linecap: square"/>
     </g>
     <g id="line2d_20">
      <g>
       <use xlink:href="#m39ba7e2ae4" x="32.707188" y="301.734467" style="stroke: #000000; stroke-width: 0.8"/>
      </g>
     </g>
     <g id="text_11">
      <text style="font-size: 10px; font-family: 'Arial', 'DejaVu Sans'; text-anchor: end" x="25.707188" y="305.313373" transform="rotate(-0 25.707188 305.313373)">10</text>
     </g>
    </g>
    <g id="ytick_3">
     <g id="line2d_21">
      <path d="M 32.707188 222.850809 
L 698.867187 222.850809 
" clip-path="url(#p7efa2cb46f)" style="fill: none; stroke: #b0b0b0; stroke-opacity: 0.3; stroke-width: 0.8; stroke-linecap: square"/>
     </g>
     <g id="line2d_22">
      <g>
       <use xlink:href="#m39ba7e2ae4" x="32.707188" y="222.850809" style="stroke: #000000; stroke-width: 0.8"/>
      </g>
     </g>
     <g id="text_12">
      <text style="font-size: 10px; font-family: 'Arial', 'DejaVu Sans'; text-anchor: end" x="25.707188" y="226.429715" transform="rotate(-0 25.707188 226.429715)">20</text>
     </g>
    </g>
    <g id="ytick_4">
     <g id="line2d_23">
      <path d="M 32.707188 143.967151 
L 698.867187 143.967151 
" clip-path="url(#p7efa2cb46f)" style="fill: none; stroke: #b0b0b0; stroke-opacity: 0.3; stroke-width: 0.8; stroke-linecap: square"/>
     </g>
     <g id="line2d_24">
      <g>
       <use xlink:href="#m39ba7e2ae4" x="32.707188" y="143.967151" style="stroke: #000000; stroke-width: 0.8"/>
      </g>
     </g>
     <g id="text_13">
      <text style="font-size: 10px; font-family: 'Arial', 'DejaVu Sans'; text-anchor: end" x="25.707188" y="147.546057" transform="rotate(-0 25.707188 147.546057)">30</text>
     </g>
    </g>
    <g id="ytick_5">
     <g id="line2d_25">
      <path d="M 32.707188 65.083493 
L 698.867187 65.083493 
" clip-path="url(#p7efa2cb46f)" style="fill: none; stroke: #b0b0b0; stroke-opacity: 0.3; stroke-width: 0.8; stroke-linecap: square"/>
     </g>
     <g id="line2d_26">
      <g>
       <use xlink:href="#m39ba7e2ae4" x="32.707188" y="65.083493" style="stroke: #000000; stroke-width: 0.8"/>
      </g>
     </g>
     <g id="text_14">
      <text style="font-size: 10px; font-family: 'Arial', 'DejaVu Sans'; text-anchor: end" x="25.707188" y="68.662399" transform="rotate(-0 25.707188 68.662399)">40</text>
     </g>
    </g>
    <g id="text_15">
     <text style="font-size: 10px; font-family: 'Arial', 'DejaVu Sans'; text-anchor: middle" x="8.597813" y="198.396875" transform="rotate(-90 8.597813 198.396875)">Count</text>
    </g>
   </g>
   <g id="line2d_27">
    <path d="M 57.37978 380.569989 
L 65.184738 380.37704 
L 70.151529 380.027301 
L 73.699238 379.562826 
L 76.537404 378.998436 
L 79.375571 378.20887 
L 82.213737 377.143751 
L 84.342362 376.137012 
L 86.470987 374.936275 
L 88.599612 373.534226 
L 91.437778 371.354867 
L 94.275945 368.850423 
L 97.823653 365.360809 
L 109.176319 353.758391 
L 112.014486 351.263901 
L 114.852652 349.020378 
L 118.400361 346.505753 
L 126.91486 340.64895 
L 129.753027 338.314804 
L 131.881652 336.323527 
L 134.010276 334.090398 
L 136.138901 331.59351 
L 138.267526 328.818985 
L 140.396151 325.758969 
L 143.234318 321.228203 
L 146.072484 316.178402 
L 148.910651 310.608029 
L 151.748817 304.520579 
L 154.586984 297.931134 
L 158.134692 289.043363 
L 161.6824 279.548353 
L 166.649192 265.567563 
L 177.292316 234.687791 
L 182.968649 217.730265 
L 187.225899 204.347278 
L 191.483149 190.226562 
L 204.96444 144.678153 
L 207.802606 136.237661 
L 210.640773 128.523534 
L 213.478939 121.553074 
L 216.317106 115.279584 
L 219.155273 109.621313 
L 221.993439 104.498936 
L 224.831606 99.871763 
L 226.96023 96.737706 
L 229.088855 93.930686 
L 231.21748 91.508487 
L 232.636564 90.143126 
L 234.055647 89.004757 
L 235.47473 88.117068 
L 236.893813 87.502361 
L 238.312897 87.180157 
L 239.73198 87.165902 
L 241.151063 87.469851 
L 242.570146 88.096185 
L 243.98923 89.042433 
L 245.408313 90.29922 
L 246.827396 91.850379 
L 248.246479 93.673398 
L 250.375104 96.855013 
L 252.503729 100.471854 
L 255.341896 105.755676 
L 266.694562 127.478073 
L 275.918603 144.276707 
L 278.75677 150.120274 
L 281.594936 156.595653 
L 284.433103 163.772544 
L 287.271269 171.616356 
L 290.818977 182.153038 
L 307.138435 231.883879 
L 312.814768 248.93571 
L 317.072018 262.41269 
L 322.038809 278.935154 
L 329.134226 302.585884 
L 332.681934 313.535624 
L 335.5201 321.553239 
L 338.358267 328.802282 
L 340.486892 333.714144 
L 342.615517 338.184341 
L 344.744142 342.236106 
L 346.872767 345.902537 
L 349.001391 349.222236 
L 351.839558 353.178655 
L 354.677724 356.681206 
L 357.515891 359.809248 
L 360.354058 362.626703 
L 363.192224 365.18132 
L 366.739932 368.053343 
L 370.28764 370.600039 
L 373.835349 372.833011 
L 377.383057 374.75041 
L 380.221223 376.054249 
L 383.05939 377.154693 
L 385.897556 378.058579 
L 389.445265 378.932751 
L 392.992973 379.559078 
L 397.250222 380.049802 
L 402.217014 380.367686 
L 409.31243 380.553316 
L 411.441055 380.576722 
L 411.441055 380.576722 
" clip-path="url(#p7efa2cb46f)" style="fill: none; stroke: #dd8452; stroke-width: 2; stroke-linecap: square"/>
   </g>
   <g id="line2d_28">
    <path d="M 138.483308 380.618125 
L 138.483308 16.175625 
" clip-path="url(#p7efa2cb46f)" style="fill: none; stroke-dasharray: 7.4,3.2; stroke-dashoffset: 0; stroke: #c44e52; stroke-width: 2"/>
   </g>
   <g id="line2d_29">
    <path d="M 674.194595 380.618125 
L 674.194595 16.175625 
" clip-path="url(#p7efa2cb46f)" style="fill: none; stroke-dasharray: 2,3.3; stroke-dashoffset: 0; stroke: #8172b3; stroke-width: 2"/>
   </g>
   <g id="patch_43">
    <path d="M 32.707188 380.618125 
L 32.707188 16.175625 
" style="fill: none; stroke: #000000; stroke-width: 0.8; stroke-linejoin: miter; stroke-linecap: square"/>
   </g>
   <g id="patch_44">
    <path d="M 698.867187 380.618125 
L 698.867187 16.175625 
" style="fill: none; stroke: #000000; stroke-width: 0.8; stroke-linejoin: miter; stroke-linecap: square"/>
   </g>
   <g id="patch_45">
    <path d="M 32.707188 380.618125 
L 698.867187 380.618125 
" style="fill: none; stroke: #000000; stroke-width: 0.8; stroke-linejoin: miter; stroke-linecap: square"/>
   </g>
   <g id="patch_46">
    <path d="M 32.707188 16.175625 
L 698.867187 16.175625 
" style="fill: none; stroke: #000000; stroke-width: 0.8; stroke-linejoin: miter; stroke-linecap: square"/>
   </g>
   <g id="text_16">
    <text style="font-size: 12px; font-family: 'Arial', 'DejaVu Sans'; text-anchor: middle" x="365.787187" y="10.175625" transform="rotate(-0 365.787187 10.175625)">Hybrid Cascade (LBPH, r3_n8_g6x6 candidate-only): Inter-Identity Distance Distribution</text>
   </g>
   <g id="legend_1">
    <g id="patch_47">
     <path d="M 542.3 81.289687 
L 691.867187 81.289687 
Q 693.867187 81.289687 693.867187 79.289687 
L 693.867187 23.175625 
Q 693.867187 21.175625 691.867187 21.175625 
L 542.3 21.175625 
Q 540.3 21.175625 540.3 23.175625 
L 540.3 79.289687 
Q 540.3 81.289687 542.3 81.289687 
z
" style="fill: #ffffff; opacity: 0.8; stroke: #cccccc; stroke-linejoin: miter"/>
    </g>
    <g id="patch_48">
     <path d="M 544.3 32.333437 
L 564.3 32.333437 
L 564.3 25.333437 
L 544.3 25.333437 
z
" style="fill: #4c72b0; opacity: 0.75; stroke: #000000; stroke-linejoin: miter"/>
    </g>
    <g id="text_17">
     <text style="font-size: 10px; font-family: 'Arial', 'DejaVu Sans'; text-anchor: start" x="572.3" y="32.333437" transform="rotate(-0 572.3 32.333437)">Inter-identity scores</text>
    </g>
    <g id="line2d_30">
     <path d="M 544.3 43.217812 
L 554.3 43.217812 
L 564.3 43.217812 
" style="fill: none; stroke: #dd8452; stroke-width: 2; stroke-linecap: square"/>
    </g>
    <g id="text_18">
     <text style="font-size: 10px; font-family: 'Arial', 'DejaVu Sans'; text-anchor: start" x="572.3" y="46.717812" transform="rotate(-0 572.3 46.717812)">KDE (bandwidth = 0.8823)</text>
    </g>
    <g id="line2d_31">
     <path d="M 544.3 57.51 
L 554.3 57.51 
L 564.3 57.51 
" style="fill: none; stroke-dasharray: 7.4,3.2; stroke-dashoffset: 0; stroke: #c44e52; stroke-width: 2"/>
    </g>
    <g id="text_19">
     <text style="font-size: 10px; font-family: 'Arial', 'DejaVu Sans'; text-anchor: start" x="572.3" y="61.01" transform="rotate(-0 572.3 61.01)">tau_accept = 52.4235</text>
    </g>
    <g id="line2d_32">
     <path d="M 544.3 71.685 
L 554.3 71.685 
L 564.3 71.685 
" style="fill: none; stroke-dasharray: 2,3.3; stroke-dashoffset: 0; stroke: #8172b3; stroke-width: 2"/>
    </g>
    <g id="text_20">
     <text style="font-size: 10px; font-family: 'Arial', 'DejaVu Sans'; text-anchor: start" x="572.3" y="75.185" transform="rotate(-0 572.3 75.185)">tau_reject = 84.942</text>
    </g>
   </g>
  </g>
 </g>
 <defs>
  <clipPath id="p7efa2cb46f">
   <rect x="32.707188" y="16.175625" width="666.16" height="364.4425"/>
  </clipPath>
 </defs>
</svg>
