<?xml version="1.0" encoding="UTF-8" standalone="no"?>
<!DOCTYPE svg PUBLIC "-//W3C//DTD SVG 1.1//EN"
 "http://www.w3.org/Graphics/SVG/1.1/DTD/svg11.dtd">
<!-- Generated by graphviz version 15.1.1 (20260805.0921)
 -->
<!-- Title: HybridCascadeManuscript Pages: 1 -->
<svg width="234pt" height="424pt"
 viewBox="0.00 0.00 234.00 424.00" xmlns="http://www.w3.org/2000/svg" xmlns:xlink="http://www.w3.org/1999/xlink">
<g id="graph0" class="graph" transform="scale(0.912494 0.912494) rotate(0) translate(5.76 458.38)">
<title>HybridCascadeManuscript</title>
<polygon fill="white" stroke="none" points="-5.76,5.76 -5.76,-458.38 250.68,-458.38 250.68,5.76 -5.76,5.76"/>
<!-- Input&#45;&gt;Preprocess -->
<g id="edge1" class="edge">
<title>Input&#45;&gt;Preprocess</title>
<path fill="none" stroke="#465a68" stroke-width="1.15" d="M117.6,-422.03C117.6,-413.82 117.6,-403.33 117.6,-393.91"/>
<polygon fill="#465a68" stroke="#465a68" stroke-width="1.15" points="119.98,-394.2 117.6,-387.4 115.22,-394.2 119.98,-394.2"/>
</g>
<!-- Preprocess&#45;&gt;LBPH -->
<g id="edge2" class="edge">
<title>Preprocess&#45;&gt;LBPH</title>
<path fill="none" stroke="#465a68" stroke-width="1.15" d="M117.6,-352.02C117.6,-343.68 117.6,-333.27 117.6,-323.93"/>
<polygon fill="#465a68" stroke="#465a68" stroke-width="1.15" points="119.98,-323.95 117.6,-317.15 115.22,-323.95 119.98,-323.95"/>
</g>
<!-- LBPH&#45;&gt;Gate -->
<g id="edge3" class="edge">
<title>LBPH&#45;&gt;Gate</title>
<path fill="none" stroke="#465a68" stroke-width="1.15" d="M117.6,-281.75C117.6,-274.05 117.6,-264.29 117.6,-254.19"/>
<polygon fill="#465a68" stroke="#465a68" stroke-width="1.15" points="119.98,-254.2 117.6,-247.4 115.22,-254.2 119.98,-254.2"/>
</g>
<!-- Gate&#45;&gt;SFace -->
<g id="edge5" class="edge">
<title>Gate&#45;&gt;SFace</title>
<path fill="none" stroke="#3f7087" stroke-width="1.35" d="M147.46,-149.37C155.87,-136.12 164.65,-122.29 171.75,-111.08"/>
<polygon fill="#3f7087" stroke="#3f7087" stroke-width="1.35" points="173.66,-112.53 175.29,-105.51 169.64,-109.98 173.66,-112.53"/>
<text xml:space="preserve" text-anchor="middle" x="180.78" y="-123.67" font-family="Arial" font-size="8.50" fill="#3f7087">Escalate</text>
</g>
<!-- Gate&#45;&gt;LBPHResult -->
<g id="edge4" class="edge">
<title>Gate&#45;&gt;LBPHResult</title>
<path fill="none" stroke="#6b747a" stroke-width="1.1" d="M87.74,-149.37C79.25,-135.99 70.39,-122.02 63.24,-110.76"/>
<polygon fill="#6b747a" stroke="#6b747a" stroke-width="1.1" points="65.36,-109.66 59.71,-105.19 61.34,-112.21 65.36,-109.66"/>
<text xml:space="preserve" text-anchor="middle" x="93.27" y="-123.67" font-family="Arial" font-size="8.50" fill="#525b60">No trigger</text>
</g>
<!-- SFace&#45;&gt;Final -->
<g id="edge7" class="edge">
<title>SFace&#45;&gt;Final</title>
<path fill="none" stroke="#3f7087" stroke-width="1.35" d="M170.36,-69.88C161.13,-60.9 149.43,-49.51 139.3,-39.65"/>
<polygon fill="#3f7087" stroke="#3f7087" stroke-width="1.35" points="141.23,-38.21 134.7,-35.17 137.91,-41.62 141.23,-38.21"/>
</g>
<!-- LBPHResult&#45;&gt;SFace -->
<!-- LBPHResult&#45;&gt;Final -->
<g id="edge6" class="edge">
<title>LBPHResult&#45;&gt;Final</title>
<path fill="none" stroke="#6b747a" stroke-width="1.1" d="M64.37,-69.88C73.34,-60.9 84.71,-49.51 94.55,-39.65"/>
<polygon fill="#6b747a" stroke="#6b747a" stroke-width="1.1" points="96.15,-41.42 99.27,-34.92 92.78,-38.06 96.15,-41.42"/>
</g>
<!-- Input -->
<g id="node1" class="node">
<title>Input</title>
<path fill="#f7f9fa" stroke="#465a68" stroke-width="1.15" d="M174.12,-452.62C174.12,-452.62 61.08,-452.62 61.08,-452.62 56.04,-452.62 51,-447.58 51,-442.54 51,-442.54 51,-432.46 51,-432.46 51,-427.42 56.04,-422.38 61.08,-422.38 61.08,-422.38 174.12,-422.38 174.12,-422.38 179.16,-422.38 184.2,-427.42 184.2,-432.46 184.2,-432.46 184.2,-442.54 184.2,-442.54 184.2,-447.58 179.16,-452.62 174.12,-452.62"/>
<text xml:space="preserve" text-anchor="middle" x="117.6" y="-434" font-family="Arial" font-size="10.00" fill="#263238">Input image</text>
</g>
<!-- Preprocess -->
<g id="node2" class="node">
<title>Preprocess</title>
<path fill="#eaf1f5" stroke="#465a68" stroke-width="1.15" d="M185.76,-385.38C185.76,-385.38 49.44,-385.38 49.44,-385.38 43.92,-385.38 38.4,-379.86 38.4,-374.34 38.4,-374.34 38.4,-363.3 38.4,-363.3 38.4,-357.78 43.92,-352.26 49.44,-352.26 49.44,-352.26 185.76,-352.26 185.76,-352.26 191.28,-352.26 196.8,-357.78 196.8,-363.3 196.8,-363.3 196.8,-374.34 196.8,-374.34 196.8,-379.86 191.28,-385.38 185.76,-385.38"/>
<text xml:space="preserve" text-anchor="middle" x="117.6" y="-365.32" font-family="Arial" font-size="10.00" fill="#263238">Preprocessing</text>
</g>
<!-- LBPH -->
<g id="node3" class="node">
<title>LBPH</title>
<path fill="#eaf1f5" stroke="#465a68" stroke-width="1.15" d="M185.76,-315.26C185.76,-315.26 49.44,-315.26 49.44,-315.26 43.92,-315.26 38.4,-309.74 38.4,-304.22 38.4,-304.22 38.4,-293.18 38.4,-293.18 38.4,-287.66 43.92,-282.14 49.44,-282.14 49.44,-282.14 185.76,-282.14 185.76,-282.14 191.28,-282.14 196.8,-287.66 196.8,-293.18 196.8,-293.18 196.8,-304.22 196.8,-304.22 196.8,-309.74 191.28,-315.26 185.76,-315.26"/>
<text xml:space="preserve" text-anchor="middle" x="117.6" y="-295.2" font-family="Arial" font-size="10.00" fill="#263238">LBPH Inference</text>
</g>
<!-- Gate -->
<g id="node4" class="node">
<title>Gate</title>
<path fill="#f4f4f1" stroke="#465a68" stroke-width="1.3" d="M218.33,-245.14C218.33,-245.14 16.87,-245.14 16.87,-245.14 10.87,-245.14 4.86,-239.14 4.86,-233.14 4.86,-233.14 4.86,-161.74 4.86,-161.74 4.86,-155.74 10.86,-149.74 16.86,-149.74 16.86,-149.74 218.33,-149.74 218.33,-149.74 224.33,-149.74 230.33,-155.74 230.33,-161.74 230.33,-161.74 230.33,-233.14 230.33,-233.14 230.33,-239.14 224.33,-245.14 218.33,-245.14"/>
<polygon fill="#465a68" stroke="#465a68" points="14.22,-220.44 14.22,-220.44 220.97,-220.44 220.97,-220.44 14.22,-220.44"/>
<text xml:space="preserve" text-anchor="start" x="105.6" y="-226.49" font-family="Arial" font-weight="bold" font-size="11.00" fill="#263238">Gate</text>
<text xml:space="preserve" text-anchor="start" x="18.22" y="-207.94" font-family="Arial" font-size="10.00" fill="#263238"> &#160;&#160;&#160;&#160;&#160;&#160;&#160;&#160;&#160;&#160;&#160;</text>
<text xml:space="preserve" text-anchor="start" x="54.22" y="-207.94" font-family="Arial" font-weight="bold" font-size="9.00" fill="#263238">Escalate if any condition holds:</text>
<text xml:space="preserve" text-anchor="start" x="186.97" y="-207.94" font-family="Arial" font-size="10.00" fill="#263238"> &#160;&#160;&#160;&#160;&#160;&#160;&#160;&#160;&#160;</text>
<text xml:space="preserve" text-anchor="start" x="16.22" y="-190.19" font-family="Arial" font-size="9.00" fill="#263238">• &#160;Quality issue</text>
<text xml:space="preserve" text-anchor="start" x="16.22" y="-175.69" font-family="Arial" font-size="9.00" fill="#263238">• &#160;Mid&#45;band distance</text>
<text xml:space="preserve" text-anchor="start" x="16.22" y="-161.19" font-family="Arial" font-size="9.00" fill="#263238">• &#160;Weak top&#45;1/top&#45;2 separation</text>
</g>
<!-- SFace -->
<g id="node5" class="node">
<title>SFace</title>
<path fill="#ddebf1" stroke="#3f7087" stroke-width="1.15" d="M233.88,-103.24C233.88,-103.24 139.32,-103.24 139.32,-103.24 133.8,-103.24 128.28,-97.72 128.28,-92.2 128.28,-92.2 128.28,-81.16 128.28,-81.16 128.28,-75.64 133.8,-70.12 139.32,-70.12 139.32,-70.12 233.88,-70.12 233.88,-70.12 239.4,-70.12 244.92,-75.64 244.92,-81.16 244.92,-81.16 244.92,-92.2 244.92,-92.2 244.92,-97.72 239.4,-103.24 233.88,-103.24"/>
<text xml:space="preserve" text-anchor="middle" x="186.6" y="-83.18" font-family="Arial" font-size="10.00" fill="#263238">SFace Inference</text>
</g>
<!-- LBPHResult -->
<g id="node6" class="node">
<title>LBPHResult</title>
<path fill="#eef2f4" stroke="#6b747a" stroke-width="1.15" d="M86.16,-103.24C86.16,-103.24 11.04,-103.24 11.04,-103.24 5.52,-103.24 0,-97.72 0,-92.2 0,-92.2 0,-81.16 0,-81.16 0,-75.64 5.52,-70.12 11.04,-70.12 11.04,-70.12 86.16,-70.12 86.16,-70.12 91.68,-70.12 97.2,-75.64 97.2,-81.16 97.2,-81.16 97.2,-92.2 97.2,-92.2 97.2,-97.72 91.68,-103.24 86.16,-103.24"/>
<text xml:space="preserve" text-anchor="middle" x="48.6" y="-83.18" font-family="Arial" font-size="10.00" fill="#263238">Use LBPH result</text>
</g>
<!-- Final -->
<g id="node7" class="node">
<title>Final</title>
<path fill="#e3eaee" stroke="#465a68" stroke-width="1.45" d="M184.76,-33.12C184.76,-33.12 48.44,-33.12 48.44,-33.12 42.92,-33.12 37.4,-27.6 37.4,-22.08 37.4,-22.08 37.4,-11.04 37.4,-11.04 37.4,-5.52 42.92,0 48.44,0 48.44,0 184.76,0 184.76,0 190.28,0 195.8,-5.52 195.8,-11.04 195.8,-11.04 195.8,-22.08 195.8,-22.08 195.8,-27.6 190.28,-33.12 184.76,-33.12"/>
<text xml:space="preserve" text-anchor="middle" x="116.6" y="-13.06" font-family="Arial" font-size="10.00" fill="#263238">Final Decision</text>
</g>
</g>
</svg>
