<?xml version="1.0" encoding="UTF-8" standalone="no"?>
<!DOCTYPE svg PUBLIC "-//W3C//DTD SVG 1.1//EN"
 "http://www.w3.org/Graphics/SVG/1.1/DTD/svg11.dtd">
<!-- Generated by graphviz version 15.1.1 (20260805.0921)
 -->
<!-- Title: HybridCascadeEnhancedUML Pages: 1 -->
<svg width="400pt" height="194pt"
 viewBox="0.00 0.00 400.00 194.00" xmlns="http://www.w3.org/2000/svg" xmlns:xlink="http://www.w3.org/1999/xlink">
<g id="graph0" class="graph" transform="scale(0.539946 0.539946) rotate(0) translate(8.64 350.95)">
<title>HybridCascadeEnhancedUML</title>
<polygon fill="white" stroke="none" points="-8.64,8.64 -8.64,-350.95 732.17,-350.95 732.17,8.64 -8.64,8.64"/>
<!-- Start&#45;&gt;Input -->
<g id="edge1" class="edge">
<title>Start&#45;&gt;Input</title>
<path fill="none" stroke="#405563" stroke-width="1.45" d="M12.42,-318.37C21.67,-318.37 38.69,-318.37 50.25,-318.37"/>
<polygon fill="#405563" stroke="#405563" stroke-width="1.45" points="50.17,-320.96 57.57,-318.37 50.17,-315.78 50.17,-320.96"/>
</g>
<!-- Input&#45;&gt;Preprocess -->
<g id="edge2" class="edge">
<title>Input&#45;&gt;Preprocess</title>
<path fill="none" stroke="#405563" stroke-width="1.45" d="M224.51,-318.37C231.12,-318.37 246.37,-318.37 261.46,-318.37"/>
<polygon fill="#405563" stroke="#405563" stroke-width="1.45" points="261.16,-320.96 268.56,-318.37 261.16,-315.78 261.16,-320.96"/>
</g>
<!-- Preprocess&#45;&gt;LBPH -->
<g id="edge3" class="edge">
<title>Preprocess&#45;&gt;LBPH</title>
<path fill="none" stroke="#405563" stroke-width="1.45" d="M487.46,-318.37C499.35,-318.37 513.41,-318.37 524.75,-318.37"/>
<polygon fill="#405563" stroke="#405563" stroke-width="1.45" points="524.66,-320.96 532.06,-318.37 524.66,-315.78 524.66,-320.96"/>
</g>
<!-- LBPH&#45;&gt;GateCard -->
<g id="edge4" class="edge">
<title>LBPH&#45;&gt;GateCard</title>
<path fill="none" stroke="#405563" stroke-width="1.45" d="M588.94,-293.82C573.04,-284.51 554.27,-273.51 536.13,-262.88"/>
<polygon fill="#405563" stroke="#405563" stroke-width="1.45" points="537.45,-260.65 529.75,-259.14 534.83,-265.12 537.45,-260.65"/>
</g>
<!-- GateCard&#45;&gt;Decision -->
<g id="edge5" class="edge">
<title>GateCard&#45;&gt;Decision</title>
<path fill="none" stroke="#7a4ba4" stroke-width="1.65" d="M598.29,-219.1C605.56,-219.1 610.45,-219.1 610.45,-219.1 610.45,-219.1 621.32,-219.1 634.7,-219.1"/>
<polygon fill="#7a4ba4" stroke="#7a4ba4" stroke-width="1.65" points="634.37,-221.69 641.77,-219.1 634.37,-216.51 634.37,-221.69"/>
</g>
<!-- Decision&#45;&gt;LBPHResult -->
<g id="edge6" class="edge">
<title>Decision&#45;&gt;LBPHResult</title>
<path fill="none" stroke="#2f8f46" stroke-width="1.75" d="M661.11,-206.5C639.39,-195.54 610.12,-180.78 610.12,-180.78 610.12,-180.78 534.92,-156.64 472.25,-136.52"/>
<polygon fill="#2f8f46" stroke="#2f8f46" stroke-width="1.75" points="473.07,-134.06 465.23,-134.27 471.49,-139 473.07,-134.06"/>
<text xml:space="preserve" text-anchor="start" x="550.85" y="-154.28" font-family="Arial" font-weight="bold" font-size="10.00" fill="#2f8f46">[NO]</text>
</g>
<!-- Decision&#45;&gt;SFace -->
<g id="edge7" class="edge">
<title>Decision&#45;&gt;SFace</title>
<path fill="none" stroke="#246fb5" stroke-width="1.75" d="M673.19,-196.97C665.11,-181.35 653.97,-159.81 644.79,-142.05"/>
<polygon fill="#246fb5" stroke="#246fb5" stroke-width="1.75" points="647.1,-140.9 641.4,-135.52 642.5,-143.28 647.1,-140.9"/>
<text xml:space="preserve" text-anchor="start" x="654.44" y="-154.28" font-family="Arial" font-weight="bold" font-size="10.00" fill="#246fb5">[YES]</text>
</g>
<!-- LBPHResult&#45;&gt;SFace -->
<!-- LBPHResult&#45;&gt;Merge -->
<g id="edge8" class="edge">
<title>LBPHResult&#45;&gt;Merge</title>
<path fill="none" stroke="#2f8f46" stroke-width="1.65" d="M393.38,-84.3C395.79,-70.98 398.76,-54.59 400.96,-42.41"/>
<polygon fill="#2f8f46" stroke="#2f8f46" stroke-width="1.65" points="403.45,-43.18 402.22,-35.44 398.36,-42.26 403.45,-43.18"/>
</g>
<!-- SFace&#45;&gt;Merge -->
<g id="edge9" class="edge">
<title>SFace&#45;&gt;Merge</title>
<path fill="none" stroke="#246fb5" stroke-width="1.65" d="M557.63,-84.23C507.54,-67.45 449.12,-47.89 449.12,-47.89 449.12,-47.89 432.04,-39.18 418.92,-32.49"/>
<polygon fill="#246fb5" stroke="#246fb5" stroke-width="1.65" points="420.37,-30.32 412.6,-29.27 418.02,-34.94 420.37,-30.32"/>
</g>
<!-- Merge&#45;&gt;Final -->
<g id="edge10" class="edge">
<title>Merge&#45;&gt;Final</title>
<path fill="none" stroke="#405563" stroke-width="1.45" d="M414.72,-23.95C425.27,-23.95 441.01,-23.95 451.61,-23.95"/>
<polygon fill="#405563" stroke="#405563" stroke-width="1.45" points="451.48,-26.54 458.88,-23.95 451.48,-21.36 451.48,-26.54"/>
</g>
<!-- Final&#45;&gt;End -->
<g id="edge11" class="edge">
<title>Final&#45;&gt;End</title>
<path fill="none" stroke="#405563" stroke-width="1.45" d="M647.09,-23.95C652.09,-23.95 655.45,-23.95 655.45,-23.95 655.45,-23.95 670.78,-23.95 684.58,-23.95"/>
<polygon fill="#405563" stroke="#405563" stroke-width="1.45" points="684.52,-26.54 691.92,-23.95 684.52,-21.36 684.52,-26.54"/>
</g>
<!-- Start -->
<g id="node1" class="node">
<title>Start</title>
<ellipse fill="#1f2d35" stroke="#1f2d35" cx="6.12" cy="-318.37" rx="6.12" ry="6.12"/>
</g>
<!-- Input -->
<g id="node2" class="node">
<title>Input</title>
<path fill="#eff6ff" stroke="#2f78c4" stroke-width="1.45" d="M212.16,-342.31C212.16,-342.31 72.08,-342.31 72.08,-342.31 66.08,-342.31 60.08,-336.31 60.08,-330.31 60.08,-330.31 60.08,-306.42 60.08,-306.42 60.08,-300.42 66.08,-294.42 72.08,-294.42 72.08,-294.42 212.16,-294.42 212.16,-294.42 218.16,-294.42 224.16,-300.42 224.16,-306.42 224.16,-306.42 224.16,-330.31 224.16,-330.31 224.16,-336.31 218.16,-342.31 212.16,-342.31"/>
<polygon fill="#2f78c4" stroke="none" points="65.12,-298.74 65.12,-337.99 149.62,-337.99 149.62,-298.74 65.12,-298.74"/>
<text xml:space="preserve" text-anchor="start" x="69.12" y="-315.87" font-family="Arial" font-size="10.00" fill="#1f2d35"> &#160;&#160;&#160;&#160;&#160;&#160;&#160;&#160;&#160;&#160;&#160;</text>
<text xml:space="preserve" text-anchor="start" x="105.12" y="-315.87" font-family="Arial" font-weight="bold" font-size="10.00" fill="white">IN</text>
<text xml:space="preserve" text-anchor="start" x="115.62" y="-315.87" font-family="Arial" font-size="10.00" fill="#1f2d35"> &#160;&#160;&#160;&#160;&#160;&#160;&#160;&#160;&#160;</text>
<text xml:space="preserve" text-anchor="start" x="153.62" y="-324.54" font-family="Arial" font-weight="bold" font-size="11.00" fill="#1f2d35">Input image</text>
<text xml:space="preserve" text-anchor="start" x="153.62" y="-304.99" font-family="Arial" font-size="8.00" fill="#1f2d35">Camera frame</text>
</g>
<!-- Preprocess -->
<g id="node3" class="node">
<title>Preprocess</title>
<path fill="#eff8ee" stroke="#3d8b4e" stroke-width="1.45" d="M475.04,-342.31C475.04,-342.31 283.2,-342.31 283.2,-342.31 277.2,-342.31 271.2,-336.31 271.2,-330.31 271.2,-330.31 271.2,-306.42 271.2,-306.42 271.2,-300.42 277.2,-294.42 283.2,-294.42 283.2,-294.42 475.04,-294.42 475.04,-294.42 481.04,-294.42 487.04,-300.42 487.04,-306.42 487.04,-306.42 487.04,-330.31 487.04,-330.31 487.04,-336.31 481.04,-342.31 475.04,-342.31"/>
<polygon fill="#3d8b4e" stroke="none" points="276.25,-298.74 276.25,-337.99 369,-337.99 369,-298.74 276.25,-298.74"/>
<text xml:space="preserve" text-anchor="start" x="280.25" y="-315.87" font-family="Arial" font-size="10.00" fill="#1f2d35"> &#160;&#160;&#160;&#160;&#160;&#160;&#160;&#160;&#160;&#160;&#160;</text>
<text xml:space="preserve" text-anchor="start" x="316.25" y="-315.87" font-family="Arial" font-weight="bold" font-size="9.00" fill="white">PRE</text>
<text xml:space="preserve" text-anchor="start" x="335" y="-315.87" font-family="Arial" font-size="10.00" fill="#1f2d35"> &#160;&#160;&#160;&#160;&#160;&#160;&#160;&#160;&#160;</text>
<text xml:space="preserve" text-anchor="start" x="373" y="-324.54" font-family="Arial" font-weight="bold" font-size="11.00" fill="#1f2d35">Preprocessing</text>
<text xml:space="preserve" text-anchor="start" x="373" y="-304.99" font-family="Arial" font-size="8.00" fill="#1f2d35">Face detection and alignment</text>
</g>
<!-- LBPH -->
<g id="node4" class="node">
<title>LBPH</title>
<path fill="#fff7e5" stroke="#c78b16" stroke-width="1.45" d="M711.53,-342.31C711.53,-342.31 546.71,-342.31 546.71,-342.31 540.71,-342.31 534.71,-336.31 534.71,-330.31 534.71,-330.31 534.71,-306.42 534.71,-306.42 534.71,-300.42 540.71,-294.42 546.71,-294.42 546.71,-294.42 711.53,-294.42 711.53,-294.42 717.53,-294.42 723.53,-300.42 723.53,-306.42 723.53,-306.42 723.53,-330.31 723.53,-330.31 723.53,-336.31 717.53,-342.31 711.53,-342.31"/>
<polygon fill="#c78b16" stroke="none" points="539.75,-298.74 539.75,-337.99 628,-337.99 628,-298.74 539.75,-298.74"/>
<text xml:space="preserve" text-anchor="start" x="543.75" y="-315.87" font-family="Arial" font-size="10.00" fill="#1f2d35"> &#160;&#160;&#160;&#160;&#160;&#160;&#160;&#160;&#160;&#160;&#160;</text>
<text xml:space="preserve" text-anchor="start" x="579.75" y="-315.87" font-family="Arial" font-weight="bold" font-size="10.00" fill="white">CV</text>
<text xml:space="preserve" text-anchor="start" x="594" y="-315.87" font-family="Arial" font-size="10.00" fill="#1f2d35"> &#160;&#160;&#160;&#160;&#160;&#160;&#160;&#160;&#160;</text>
<text xml:space="preserve" text-anchor="start" x="632" y="-324.54" font-family="Arial" font-weight="bold" font-size="11.00" fill="#1f2d35">LBPH Inference</text>
<text xml:space="preserve" text-anchor="start" x="632" y="-304.99" font-family="Arial" font-size="8.00" fill="#1f2d35">Fast first&#45;pass match</text>
</g>
<!-- GateCard -->
<g id="node5" class="node">
<title>GateCard</title>
<path fill="#f7f0fc" stroke="#7a4ba4" stroke-width="1.6" d="M585.66,-257.42C585.66,-257.42 340.58,-257.42 340.58,-257.42 334.58,-257.42 328.58,-251.42 328.58,-245.42 328.58,-245.42 328.58,-192.78 328.58,-192.78 328.58,-186.78 334.58,-180.78 340.58,-180.78 340.58,-180.78 585.66,-180.78 585.66,-180.78 591.66,-180.78 597.66,-186.78 597.66,-192.78 597.66,-192.78 597.66,-245.42 597.66,-245.42 597.66,-251.42 591.66,-257.42 585.66,-257.42"/>
<polygon fill="#7a4ba4" stroke="none" points="333.62,-185.1 333.62,-253.1 431.62,-253.1 431.62,-185.1 333.62,-185.1"/>
<text xml:space="preserve" text-anchor="start" x="337.62" y="-216.6" font-family="Arial" font-size="10.00" fill="#1f2d35"> &#160;&#160;&#160;&#160;&#160;&#160;&#160;&#160;&#160;&#160;&#160;</text>
<text xml:space="preserve" text-anchor="start" x="373.62" y="-216.6" font-family="Arial" font-weight="bold" font-size="9.00" fill="white">GATE</text>
<text xml:space="preserve" text-anchor="start" x="397.62" y="-216.6" font-family="Arial" font-size="10.00" fill="#1f2d35"> &#160;&#160;&#160;&#160;&#160;&#160;&#160;&#160;&#160;</text>
<text xml:space="preserve" text-anchor="start" x="435.62" y="-239.65" font-family="Arial" font-weight="bold" font-size="11.00" fill="#1f2d35">Gate</text>
<text xml:space="preserve" text-anchor="start" x="435.62" y="-220.05" font-family="Arial" font-weight="bold" font-size="9.00" fill="#1f2d35">Escalate on any trigger</text>
<text xml:space="preserve" text-anchor="start" x="435.62" y="-200.6" font-family="Arial" font-size="10.00" fill="#1f2d35"> &#160;&#160;&#160;&#160;&#160;&#160;&#160;&#160;&#160;&#160;&#160;</text>
<text xml:space="preserve" text-anchor="start" x="471.62" y="-200.6" font-family="Arial" font-size="8.00" fill="#1f2d35">Quality issue · Mid&#45;band distance</text>
<text xml:space="preserve" text-anchor="start" x="446.12" y="-190.6" font-family="Arial" font-size="8.00" fill="#1f2d35">Weak top&#45;1/top&#45;2 separation</text>
<text xml:space="preserve" text-anchor="start" x="548.12" y="-190.6" font-family="Arial" font-size="10.00" fill="#1f2d35"> &#160;&#160;&#160;&#160;&#160;&#160;&#160;&#160;&#160;</text>
</g>
<!-- Decision -->
<g id="node6" class="node">
<title>Decision</title>
<polygon fill="#f7f0fc" stroke="#7a4ba4" stroke-width="1.65" points="684.12,-248.62 645.24,-219.1 684.12,-189.58 723,-219.1 684.12,-248.62"/>
<text xml:space="preserve" text-anchor="middle" x="684.12" y="-215.6" font-family="Arial Bold" font-size="10.00" fill="#1f2d35">Escalate?</text>
</g>
<!-- LBPHResult -->
<g id="node7" class="node">
<title>LBPHResult</title>
<path fill="#eef8f0" stroke="#2f8f46" stroke-width="1.45" d="M473.79,-132.78C473.79,-132.78 304.45,-132.78 304.45,-132.78 298.45,-132.78 292.45,-126.78 292.45,-120.78 292.45,-120.78 292.45,-96.89 292.45,-96.89 292.45,-90.89 298.45,-84.89 304.45,-84.89 304.45,-84.89 473.79,-84.89 473.79,-84.89 479.79,-84.89 485.79,-90.89 485.79,-96.89 485.79,-96.89 485.79,-120.78 485.79,-120.78 485.79,-126.78 479.79,-132.78 473.79,-132.78"/>
<polygon fill="#2f8f46" stroke="none" points="297.5,-89.21 297.5,-128.46 385.75,-128.46 385.75,-89.21 297.5,-89.21"/>
<text xml:space="preserve" text-anchor="start" x="301.5" y="-106.34" font-family="Arial" font-size="10.00" fill="#1f2d35"> &#160;&#160;&#160;&#160;&#160;&#160;&#160;&#160;&#160;&#160;&#160;</text>
<text xml:space="preserve" text-anchor="start" x="337.5" y="-106.34" font-family="Arial" font-weight="bold" font-size="10.00" fill="white">CV</text>
<text xml:space="preserve" text-anchor="start" x="351.75" y="-106.34" font-family="Arial" font-size="10.00" fill="#1f2d35"> &#160;&#160;&#160;&#160;&#160;&#160;&#160;&#160;&#160;</text>
<text xml:space="preserve" text-anchor="start" x="389.75" y="-115.01" font-family="Arial" font-weight="bold" font-size="11.00" fill="#1f2d35">Use LBPH result</text>
<text xml:space="preserve" text-anchor="start" x="389.75" y="-95.46" font-family="Arial" font-size="8.00" fill="#1f2d35">No escalation</text>
</g>
<!-- SFace -->
<g id="node8" class="node">
<title>SFace</title>
<path fill="#eaf4fc" stroke="#246fb5" stroke-width="1.45" d="M710.91,-132.78C710.91,-132.78 545.33,-132.78 545.33,-132.78 539.33,-132.78 533.33,-126.78 533.33,-120.78 533.33,-120.78 533.33,-96.89 533.33,-96.89 533.33,-90.89 539.33,-84.89 545.33,-84.89 545.33,-84.89 710.91,-84.89 710.91,-84.89 716.91,-84.89 722.91,-90.89 722.91,-96.89 722.91,-96.89 722.91,-120.78 722.91,-120.78 722.91,-126.78 716.91,-132.78 710.91,-132.78"/>
<polygon fill="#246fb5" stroke="none" points="538.37,-89.21 538.37,-128.46 625.87,-128.46 625.87,-89.21 538.37,-89.21"/>
<text xml:space="preserve" text-anchor="start" x="542.37" y="-106.34" font-family="Arial" font-size="10.00" fill="#1f2d35"> &#160;&#160;&#160;&#160;&#160;&#160;&#160;&#160;&#160;&#160;&#160;</text>
<text xml:space="preserve" text-anchor="start" x="578.37" y="-106.34" font-family="Arial" font-weight="bold" font-size="10.00" fill="white">DL</text>
<text xml:space="preserve" text-anchor="start" x="591.87" y="-106.34" font-family="Arial" font-size="10.00" fill="#1f2d35"> &#160;&#160;&#160;&#160;&#160;&#160;&#160;&#160;&#160;</text>
<text xml:space="preserve" text-anchor="start" x="629.87" y="-115.01" font-family="Arial" font-weight="bold" font-size="11.00" fill="#1f2d35">SFace Inference</text>
<text xml:space="preserve" text-anchor="start" x="629.87" y="-95.46" font-family="Arial" font-size="8.00" fill="#1f2d35">Escalated match</text>
</g>
<!-- Merge -->
<g id="node9" class="node">
<title>Merge</title>
<polygon fill="#e5ecef" stroke="#405563" stroke-width="1.3" points="404.12,-33.67 394.4,-23.95 404.12,-14.22 413.84,-23.94 404.12,-33.67"/>
</g>
<!-- Final -->
<g id="node10" class="node">
<title>Final</title>
<path fill="#eaf0f3" stroke="#405563" stroke-width="1.6" d="M634.66,-47.89C634.66,-47.89 473.58,-47.89 473.58,-47.89 467.58,-47.89 461.58,-41.89 461.58,-35.89 461.58,-35.89 461.58,-12 461.58,-12 461.58,-6 467.58,0 473.58,0 473.58,0 634.66,0 634.66,0 640.66,0 646.66,-6 646.66,-12 646.66,-12 646.66,-35.89 646.66,-35.89 646.66,-41.89 640.66,-47.89 634.66,-47.89"/>
<polygon fill="#405563" stroke="none" points="466.62,-4.32 466.62,-43.57 559.37,-43.57 559.37,-4.32 466.62,-4.32"/>
<text xml:space="preserve" text-anchor="start" x="470.62" y="-21.45" font-family="Arial" font-size="10.00" fill="#1f2d35"> &#160;&#160;&#160;&#160;&#160;&#160;&#160;&#160;&#160;&#160;&#160;</text>
<text xml:space="preserve" text-anchor="start" x="506.62" y="-21.45" font-family="Arial" font-weight="bold" font-size="9.00" fill="white">OUT</text>
<text xml:space="preserve" text-anchor="start" x="525.37" y="-21.45" font-family="Arial" font-size="10.00" fill="#1f2d35"> &#160;&#160;&#160;&#160;&#160;&#160;&#160;&#160;&#160;</text>
<text xml:space="preserve" text-anchor="start" x="563.37" y="-30.12" font-family="Arial" font-weight="bold" font-size="11.00" fill="#1f2d35">Final Decision</text>
<text xml:space="preserve" text-anchor="start" x="563.37" y="-10.57" font-family="Arial" font-size="8.00" fill="#1f2d35">Identity or reject</text>
</g>
<!-- End -->
<g id="node11" class="node">
<title>End</title>
<ellipse fill="#1f2d35" stroke="#1f2d35" cx="706.12" cy="-23.95" rx="7.56" ry="7.56"/>
<ellipse fill="none" stroke="#1f2d35" cx="706.12" cy="-23.95" rx="11.56" ry="11.56"/>
</g>
</g>
</svg>
